  0
SECTION
  2
HEADER
  9
$ACADVER
  1
AC1032
  9
$ACADMAINTVER
 90
4
  9
$DWGCODEPAGE
  3
ANSI_1252
  9
$LASTSAVEDBY
  1
ezdxf
  9
$REQUIREDVERSIONS
160
0
  9
$INSBASE
 10
0.0
 20
0.0
 30
0.0
  9
$EXTMIN
 10
1e+20
 20
1e+20
 30
1e+20
  9
$EXTMAX
 10
-1e+20
 20
-1e+20
 30
-1e+20
  9
$LIMMIN
 10
0.0
 20
0.0
  9
$LIMMAX
 10
420.0
 20
297.0
  9
$ORTHOMODE
 70
0
  9
$REGENMODE
 70
1
  9
$FILLMODE
 70
1
  9
$QTEXTMODE
 70
0
  9
$MIRRTEXT
 70
1
  9
$LTSCALE
 40
1.0
  9
$ATTMODE
 70
1
  9
$TEXTSIZE
 40
2.5
  9
$TRACEWID
 40
1.0
  9
$TEXTSTYLE
  7
Standard
  9
$CLAYER
  8
0
  9
$CELTYPE
  6
ByLayer
  9
$CECOLOR
 62
256
  9
$CELTSCALE
 40
1.0
  9
$DISPSILH
 70
0
  9
$DIMSCALE
 40
1.0
  9
$DIMASZ
 40
2.5
  9
$DIMEXO
 40
0.625
  9
$DIMDLI
 40
3.75
  9
$DIMRND
 40
0.0
  9
$DIMDLE
 40
0.0
  9
$DIMEXE
 40
1.25
  9
$DIMTP
 40
0.0
  9
$DIMTM
 40
0.0
  9
$DIMTXT
 40
2.5
  9
$DIMCEN
 40
2.5
  9
$DIMTSZ
 40
0.0
  9
$DIMTOL
 70
0
  9
$DIMLIM
 70
0
  9
$DIMTIH
 70
0
  9
$DIMTOH
 70
0
  9
$DIMSE1
 70
0
  9
$DIMSE2
 70
0
  9
$DIMTAD
 70
1
  9
$DIMZIN
 70
8
  9
$DIMBLK
  1

  9
$DIMASO
 70
1
  9
$DIMSHO
 70
1
  9
$DIMPOST
  1

  9
$DIMAPOST
  1

  9
$DIMALT
 70
0
  9
$DIMALTD
 70
3
  9
$DIMALTF
 40
0.03937007874
  9
$DIMLFAC
 40
1.0
  9
$DIMTOFL
 70
1
  9
$DIMTVP
 40
0.0
  9
$DIMTIX
 70
0
  9
$DIMSOXD
 70
0
  9
$DIMSAH
 70
0
  9
$DIMBLK1
  1

  9
$DIMBLK2
  1

  9
$DIMSTYLE
  2
ISO-25
  9
$DIMCLRD
 70
0
  9
$DIMCLRE
 70
0
  9
$DIMCLRT
 70
0
  9
$DIMTFAC
 40
1.0
  9
$DIMGAP
 40
0.625
  9
$DIMJUST
 70
0
  9
$DIMSD1
 70
0
  9
$DIMSD2
 70
0
  9
$DIMTOLJ
 70
0
  9
$DIMTZIN
 70
8
  9
$DIMALTZ
 70
0
  9
$DIMALTTZ
 70
0
  9
$DIMUPT
 70
0
  9
$DIMDEC
 70
2
  9
$DIMTDEC
 70
2
  9
$DIMALTU
 70
2
  9
$DIMALTTD
 70
3
  9
$DIMTXSTY
  7
Standard
  9
$DIMAUNIT
 70
0
  9
$DIMADEC
 70
0
  9
$DIMALTRND
 40
0.0
  9
$DIMAZIN
 70
0
  9
$DIMDSEP
 70
44
  9
$DIMATFIT
 70
3
  9
$DIMFRAC
 70
0
  9
$DIMLDRBLK
  1

  9
$DIMLUNIT
 70
2
  9
$DIMLWD
 70
-2
  9
$DIMLWE
 70
-2
  9
$DIMTMOVE
 70
0
  9
$DIMFXL
 40
1.0
  9
$DIMFXLON
 70
0
  9
$DIMJOGANG
 40
0.785398163397
  9
$DIMTFILL
 70
0
  9
$DIMTFILLCLR
 70
0
  9
$DIMARCSYM
 70
0
  9
$DIMLTYPE
  6

  9
$DIMLTEX1
  6

  9
$DIMLTEX2
  6

  9
$DIMTXTDIRECTION
 70
0
  9
$LUNITS
 70
2
  9
$LUPREC
 70
4
  9
$SKETCHINC
 40
1.0
  9
$FILLETRAD
 40
10.0
  9
$AUNITS
 70
0
  9
$AUPREC
 70
2
  9
$MENU
  1
.
  9
$ELEVATION
 40
0.0
  9
$PELEVATION
 40
0.0
  9
$THICKNESS
 40
0.0
  9
$LIMCHECK
 70
0
  9
$CHAMFERA
 40
0.0
  9
$CHAMFERB
 40
0.0
  9
$CHAMFERC
 40
0.0
  9
$CHAMFERD
 40
0.0
  9
$SKPOLY
 70
0
  9
$TDCREATE
 40
2461070.830011574
  9
$TDUCREATE
 40
2458532.153996898
  9
$TDUPDATE
 40
2461070.830011574
  9
$TDUUPDATE
 40
2458532.1544311
  9
$TDINDWG
 40
0.0
  9
$TDUSRTIMER
 40
0.0
  9
$USRTIMER
 70
1
  9
$ANGBASE
 50
0.0
  9
$ANGDIR
 70
0
  9
$PDMODE
 70
0
  9
$PDSIZE
 40
0.0
  9
$PLINEWID
 40
0.0
  9
$SPLFRAME
 70
0
  9
$SPLINETYPE
 70
6
  9
$SPLINESEGS
 70
8
  9
$HANDSEED
  5
E2
  9
$SURFTAB1
 70
6
  9
$SURFTAB2
 70
6
  9
$SURFTYPE
 70
6
  9
$SURFU
 70
6
  9
$SURFV
 70
6
  9
$UCSBASE
  2

  9
$UCSNAME
  2

  9
$UCSORG
 10
0.0
 20
0.0
 30
0.0
  9
$UCSXDIR
 10
1.0
 20
0.0
 30
0.0
  9
$UCSYDIR
 10
0.0
 20
1.0
 30
0.0
  9
$UCSORTHOREF
  2

  9
$UCSORTHOVIEW
 70
0
  9
$UCSORGTOP
 10
0.0
 20
0.0
 30
0.0
  9
$UCSORGBOTTOM
 10
0.0
 20
0.0
 30
0.0
  9
$UCSORGLEFT
 10
0.0
 20
0.0
 30
0.0
  9
$UCSORGRIGHT
 10
0.0
 20
0.0
 30
0.0
  9
$UCSORGFRONT
 10
0.0
 20
0.0
 30
0.0
  9
$UCSORGBACK
 10
0.0
 20
0.0
 30
0.0
  9
$PUCSBASE
  2

  9
$PUCSNAME
  2

  9
$PUCSORG
 10
0.0
 20
0.0
 30
0.0
  9
$PUCSXDIR
 10
1.0
 20
0.0
 30
0.0
  9
$PUCSYDIR
 10
0.0
 20
1.0
 30
0.0
  9
$PUCSORTHOREF
  2

  9
$PUCSORTHOVIEW
 70
0
  9
$PUCSORGTOP
 10
0.0
 20
0.0
 30
0.0
  9
$PUCSORGBOTTOM
 10
0.0
 20
0.0
 30
0.0
  9
$PUCSORGLEFT
 10
0.0
 20
0.0
 30
0.0
  9
$PUCSORGRIGHT
 10
0.0
 20
0.0
 30
0.0
  9
$PUCSORGFRONT
 10
0.0
 20
0.0
 30
0.0
  9
$PUCSORGBACK
 10
0.0
 20
0.0
 30
0.0
  9
$USERI1
 70
0
  9
$USERI2
 70
0
  9
$USERI3
 70
0
  9
$USERI4
 70
0
  9
$USERI5
 70
0
  9
$USERR1
 40
0.0
  9
$USERR2
 40
0.0
  9
$USERR3
 40
0.0
  9
$USERR4
 40
0.0
  9
$USERR5
 40
0.0
  9
$WORLDVIEW
 70
1
  9
$SHADEDGE
 70
3
  9
$SHADEDIF
 70
70
  9
$TILEMODE
 70
1
  9
$MAXACTVP
 70
64
  9
$PINSBASE
 10
0.0
 20
0.0
 30
0.0
  9
$PLIMCHECK
 70
0
  9
$PEXTMIN
 10
1e+20
 20
1e+20
 30
1e+20
  9
$PEXTMAX
 10
-1e+20
 20
-1e+20
 30
-1e+20
  9
$PLIMMIN
 10
0.0
 20
0.0
  9
$PLIMMAX
 10
420.0
 20
297.0
  9
$UNITMODE
 70
0
  9
$VISRETAIN
 70
1
  9
$PLINEGEN
 70
0
  9
$PSLTSCALE
 70
1
  9
$TREEDEPTH
 70
3020
  9
$CMLSTYLE
  2
Standard
  9
$CMLJUST
 70
0
  9
$CMLSCALE
 40
20.0
  9
$PROXYGRAPHICS
 70
1
  9
$MEASUREMENT
 70
1
  9
$CELWEIGHT
370
-1
  9
$ENDCAPS
280
0
  9
$JOINSTYLE
280
0
  9
$LWDISPLAY
290
0
  9
$INSUNITS
 70
6
  9
$HYPERLINKBASE
  1

  9
$STYLESHEET
  1

  9
$XEDIT
290
1
  9
$CEPSNTYPE
380
0
  9
$PSTYLEMODE
290
1
  9
$FINGERPRINTGUID
  2
{309D2C1C-A2CE-41B2-9C8D-D415434A0A66}
  9
$VERSIONGUID
  2
{0367819F-D508-44DD-BBA3-7168417A1DAB}
  9
$EXTNAMES
290
1
  9
$PSVPSCALE
 40
0.0
  9
$OLESTARTUP
290
0
  9
$SORTENTS
280
127
  9
$INDEXCTL
280
0
  9
$HIDETEXT
280
1
  9
$XCLIPFRAME
280
1
  9
$HALOGAP
280
0
  9
$OBSCOLOR
 70
257
  9
$OBSLTYPE
280
0
  9
$INTERSECTIONDISPLAY
280
0
  9
$INTERSECTIONCOLOR
 70
257
  9
$DIMASSOC
280
2
  9
$PROJECTNAME
  1

  9
$CAMERADISPLAY
290
0
  9
$LENSLENGTH
 40
50.0
  9
$CAMERAHEIGHT
 40
0.0
  9
$STEPSPERSEC
 40
24.0
  9
$STEPSIZE
 40
100.0
  9
$3DDWFPREC
 40
2.0
  9
$PSOLWIDTH
 40
0.005
  9
$PSOLHEIGHT
 40
0.08
  9
$LOFTANG1
 40
1.570796326795
  9
$LOFTANG2
 40
1.570796326795
  9
$LOFTMAG1
 40
0.0
  9
$LOFTMAG2
 40
0.0
  9
$LOFTPARAM
 70
7
  9
$LOFTNORMALS
280
1
  9
$LATITUDE
 40
37.795
  9
$LONGITUDE
 40
-122.394
  9
$NORTHDIRECTION
 40
0.0
  9
$TIMEZONE
 70
-8000
  9
$LIGHTGLYPHDISPLAY
280
1
  9
$TILEMODELIGHTSYNCH
280
1
  9
$CMATERIAL
347
20
  9
$SOLIDHIST
280
0
  9
$SHOWHIST
280
1
  9
$DWFFRAME
280
2
  9
$DGNFRAME
280
2
  9
$REALWORLDSCALE
290
1
  9
$INTERFERECOLOR
 62
256
  9
$CSHADOW
280
0
  9
$SHADOWPLANELOCATION
 40
0.0
  0
ENDSEC
  0
SECTION
  2
CLASSES
  0
CLASS
  1
ACDBDICTIONARYWDFLT
  2
AcDbDictionaryWithDefault
  3
ObjectDBX Classes
 90
0
 91
0
280
0
281
0
  0
CLASS
  1
SUN
  2
AcDbSun
  3
SCENEOE
 90
1153
 91
0
280
0
281
0
  0
CLASS
  1
VISUALSTYLE
  2
AcDbVisualStyle
  3
ObjectDBX Classes
 90
4095
 91
0
280
0
281
0
  0
CLASS
  1
MATERIAL
  2
AcDbMaterial
  3
ObjectDBX Classes
 90
1153
 91
0
280
0
281
0
  0
CLASS
  1
SCALE
  2
AcDbScale
  3
ObjectDBX Classes
 90
1153
 91
0
280
0
281
0
  0
CLASS
  1
TABLESTYLE
  2
AcDbTableStyle
  3
ObjectDBX Classes
 90
4095
 91
0
280
0
281
0
  0
CLASS
  1
MLEADERSTYLE
  2
AcDbMLeaderStyle
  3
ACDB_MLEADERSTYLE_CLASS
 90
4095
 91
0
280
0
281
0
  0
CLASS
  1
DICTIONARYVAR
  2
AcDbDictionaryVar
  3
ObjectDBX Classes
 90
0
 91
0
280
0
281
0
  0
CLASS
  1
CELLSTYLEMAP
  2
AcDbCellStyleMap
  3
ObjectDBX Classes
 90
1152
 91
0
280
0
281
0
  0
CLASS
  1
MENTALRAYRENDERSETTINGS
  2
AcDbMentalRayRenderSettings
  3
SCENEOE
 90
1024
 91
0
280
0
281
0
  0
CLASS
  1
ACDBDETAILVIEWSTYLE
  2
AcDbDetailViewStyle
  3
ObjectDBX Classes
 90
1025
 91
0
280
0
281
0
  0
CLASS
  1
ACDBSECTIONVIEWSTYLE
  2
AcDbSectionViewStyle
  3
ObjectDBX Classes
 90
1025
 91
0
280
0
281
0
  0
CLASS
  1
RASTERVARIABLES
  2
AcDbRasterVariables
  3
ISM
 90
0
 91
0
280
0
281
0
  0
CLASS
  1
ACDBPLACEHOLDER
  2
AcDbPlaceHolder
  3
ObjectDBX Classes
 90
0
 91
0
280
0
281
0
  0
CLASS
  1
LAYOUT
  2
AcDbLayout
  3
ObjectDBX Classes
 90
0
 91
0
280
0
281
0
  0
ENDSEC
  0
SECTION
  2
TABLES
  0
TABLE
  2
VPORT
  5
8
330
0
100
AcDbSymbolTable
 70
1
  0
VPORT
  5
23
330
8
100
AcDbSymbolTableRecord
100
AcDbViewportTableRecord
  2
*Active
 70
0
 10
0.0
 20
0.0
 11
1.0
 21
1.0
 12
0.0
 22
0.0
 13
0.0
 23
0.0
 14
0.5
 24
0.5
 15
0.5
 25
0.5
 16
0.0
 26
0.0
 36
1.0
 17
0.0
 27
0.0
 37
0.0
 40
1000.0
 41
1.34
 42
50.0
 43
0.0
 44
0.0
 50
0.0
 51
0.0
 71
0
 72
1000
 73
1
 74
3
 75
0
 76
0
 77
0
 78
0
281
0
 65
0
146
0.0
  0
ENDTAB
  0
TABLE
  2
LTYPE
  5
2
330
0
100
AcDbSymbolTable
 70
3
  0
LTYPE
  5
24
330
2
100
AcDbSymbolTableRecord
100
AcDbLinetypeTableRecord
  2
ByBlock
 70
0
  3

 72
65
 73
0
 40
0.0
  0
LTYPE
  5
25
330
2
100
AcDbSymbolTableRecord
100
AcDbLinetypeTableRecord
  2
ByLayer
 70
0
  3

 72
65
 73
0
 40
0.0
  0
LTYPE
  5
26
330
2
100
AcDbSymbolTableRecord
100
AcDbLinetypeTableRecord
  2
Continuous
 70
0
  3

 72
65
 73
0
 40
0.0
  0
ENDTAB
  0
TABLE
  2
LAYER
  5
1
330
0
100
AcDbSymbolTable
 70
9
  0
LAYER
  5
27
330
1
100
AcDbSymbolTableRecord
100
AcDbLayerTableRecord
  2
0
 70
0
 62
7
  6
Continuous
370
-3
390
13
347
21
  0
LAYER
  5
28
330
1
100
AcDbSymbolTableRecord
100
AcDbLayerTableRecord
  2
Defpoints
 70
0
 62
7
  6
Continuous
290
0
370
-3
390
13
347
21
  0
LAYER
  5
2F
330
1
100
AcDbSymbolTableRecord
100
AcDbLayerTableRecord
  2
PLOT
 70
0
 62
1
  6
Continuous
370
-3
390
13
347
21
  0
LAYER
  5
30
330
1
100
AcDbSymbolTableRecord
100
AcDbLayerTableRecord
  2
BUILDINGS
 70
0
 62
7
  6
Continuous
370
-3
390
13
347
21
  0
LAYER
  5
31
330
1
100
AcDbSymbolTableRecord
100
AcDbLayerTableRecord
  2
ROADS
 70
0
 62
8
  6
Continuous
370
-3
390
13
347
21
  0
LAYER
  5
32
330
1
100
AcDbSymbolTableRecord
100
AcDbLayerTableRecord
  2
RIVERS
 70
0
 62
5
  6
Continuous
370
-3
390
13
347
21
  0
LAYER
  5
33
330
1
100
AcDbSymbolTableRecord
100
AcDbLayerTableRecord
  2
GRID
 70
0
 62
4
  6
Continuous
370
-3
390
13
347
21
  0
LAYER
  5
34
330
1
100
AcDbSymbolTableRecord
100
AcDbLayerTableRecord
  2
COORDS
 70
0
 62
4
  6
Continuous
370
-3
390
13
347
21
  0
LAYER
  5
35
330
1
100
AcDbSymbolTableRecord
100
AcDbLayerTableRecord
  2
TEXT
 70
0
 62
2
  6
Continuous
370
-3
390
13
347
21
  0
ENDTAB
  0
TABLE
  2
STYLE
  5
5
330
0
100
AcDbSymbolTable
 70
1
  0
STYLE
  5
29
330
5
100
AcDbSymbolTableRecord
100
AcDbTextStyleTableRecord
  2
Standard
 70
0
 40
0.0
 41
1.0
 50
0.0
 71
0
 42
2.5
  3
txt
  4

  0
ENDTAB
  0
TABLE
  2
VIEW
  5
7
330
0
100
AcDbSymbolTable
 70
0
  0
ENDTAB
  0
TABLE
  2
UCS
  5
6
330
0
100
AcDbSymbolTable
 70
0
  0
ENDTAB
  0
TABLE
  2
APPID
  5
3
330
0
100
AcDbSymbolTable
 70
3
  0
APPID
  5
2A
330
3
100
AcDbSymbolTableRecord
100
AcDbRegAppTableRecord
  2
ACAD
 70
0
  0
APPID
  5
DF
330
3
100
AcDbSymbolTableRecord
100
AcDbRegAppTableRecord
  2
HATCHBACKGROUNDCOLOR
 70
0
  0
APPID
  5
E0
330
3
100
AcDbSymbolTableRecord
100
AcDbRegAppTableRecord
  2
EZDXF
 70
0
  0
ENDTAB
  0
TABLE
  2
DIMSTYLE
  5
4
330
0
100
AcDbSymbolTable
 70
1
100
AcDbDimStyleTable
  0
DIMSTYLE
105
2B
330
4
100
AcDbSymbolTableRecord
100
AcDbDimStyleTableRecord
  2
Standard
 70
0
 40
1.0
 41
2.5
 42
0.625
 43
3.75
 44
1.25
 45
0.0
 46
0.0
 47
0.0
 48
0.0
 49
2.5
140
2.5
141
2.5
142
0.0
143
0.03937007874
144
1.0
145
0.0
146
1.0
147
0.625
148
0.0
 69
0
 70
0
 71
0
 72
0
 73
0
 74
0
 75
0
 76
0
 77
1
 78
8
 79
3
170
0
171
3
172
1
173
0
174
0
175
0
176
0
177
0
178
0
179
2
271
2
272
2
273
2
274
3
275
0
276
0
277
2
278
44
279
0
280
0
281
0
282
0
283
0
284
8
285
0
286
0
288
0
289
3
290
0
371
-2
372
-2
  0
ENDTAB
  0
TABLE
  2
BLOCK_RECORD
  5
9
330
0
100
AcDbSymbolTable
 70
2
  0
BLOCK_RECORD
  5
17
330
9
100
AcDbSymbolTableRecord
100
AcDbBlockTableRecord
  2
*Model_Space
340
1A
 70
0
280
1
281
0
  0
BLOCK_RECORD
  5
1B
330
9
100
AcDbSymbolTableRecord
100
AcDbBlockTableRecord
  2
*Paper_Space
340
1E
 70
0
280
1
281
0
  0
ENDTAB
  0
ENDSEC
  0
SECTION
  2
BLOCKS
  0
BLOCK
  5
18
330
17
100
AcDbEntity
  8
0
100
AcDbBlockBegin
  2
*Model_Space
 70
0
 10
0.0
 20
0.0
 30
0.0
  3
*Model_Space
  1

  0
ENDBLK
  5
19
330
17
100
AcDbEntity
  8
0
100
AcDbBlockEnd
  0
BLOCK
  5
1C
330
1B
100
AcDbEntity
  8
0
100
AcDbBlockBegin
  2
*Paper_Space
 70
0
 10
0.0
 20
0.0
 30
0.0
  3
*Paper_Space
  1

  0
ENDBLK
  5
1D
330
1B
100
AcDbEntity
  8
0
100
AcDbBlockEnd
  0
ENDSEC
  0
SECTION
  2
ENTITIES
  0
LINE
  5
36
330
17
100
AcDbEntity
  8
PLOT
100
AcDbLine
 10
1264961.358534757
 20
994146.9383804919
 30
0.0
 11
1264986.6712020875
 21
994065.6713959466
 31
0.0
  0
LINE
  5
37
330
17
100
AcDbEntity
  8
PLOT
100
AcDbLine
 10
1264986.6712020875
 20
994065.6713959466
 30
0.0
 11
1265198.4982599653
 21
994150.9351174004
 31
0.0
  0
LINE
  5
38
330
17
100
AcDbEntity
  8
PLOT
100
AcDbLine
 10
1265198.4982599653
 20
994150.9351174004
 30
0.0
 11
1265134.5504697259
 21
994216.2151547407
 31
0.0
  0
LINE
  5
39
330
17
100
AcDbEntity
  8
PLOT
100
AcDbLine
 10
1265134.5504697259
 20
994216.2151547407
 30
0.0
 11
1265073.2671699675
 21
994157.5963463706
 31
0.0
  0
LINE
  5
3A
330
17
100
AcDbEntity
  8
PLOT
100
AcDbLine
 10
1265073.2671699675
 20
994157.5963463706
 30
0.0
 11
1264961.358534757
 21
994146.9383804919
 31
0.0
  0
TEXT
  5
3B
330
17
100
AcDbEntity
  8
TEXT
100
AcDbText
 10
1264974.0148684224
 20
994106.3048882193
 30
0.0
 40
3.0
  1
162.7°  85.1m
 50
-72.69947279962756
 72
1
 11
1264974.0148684224
 21
994106.3048882193
 31
0.0
100
AcDbText
  0
TEXT
  5
3C
330
17
100
AcDbEntity
  8
TEXT
100
AcDbText
 10
1265092.5847310266
 20
994108.3032566735
 30
0.0
 40
3.0
  1
68.1°  228.3m
 50
21.92556050378614
 72
1
 11
1265092.5847310266
 21
994108.3032566735
 31
0.0
100
AcDbText
  0
TEXT
  5
3D
330
17
100
AcDbEntity
  8
TEXT
100
AcDbText
 10
1265166.5243648456
 20
994183.5751360706
 30
0.0
 40
3.0
  1
315.6°  91.4m
 50
314.40934213999276
 72
1
 11
1265166.5243648456
 21
994183.5751360706
 31
0.0
100
AcDbText
  0
TEXT
  5
3E
330
17
100
AcDbEntity
  8
TEXT
100
AcDbText
 10
1265103.9088198468
 20
994186.9057505557
 30
0.0
 40
3.0
  1
226.3°  84.8m
 50
43.72696993385034
 72
1
 11
1265103.9088198468
 21
994186.9057505557
 31
0.0
100
AcDbText
  0
TEXT
  5
3F
330
17
100
AcDbEntity
  8
TEXT
100
AcDbText
 10
1265017.3128523622
 20
994152.2673634313
 30
0.0
 40
3.0
  1
264.6°  112.4m
 50
5.440332345879682
 72
1
 11
1265017.3128523622
 21
994152.2673634313
 31
0.0
100
AcDbText
  0
TEXT
  5
40
330
17
100
AcDbEntity
  8
TEXT
100
AcDbText
 10
1265073.8781091247
 20
994137.6232685548
 30
0.0
 40
6.0
  1
PLOT 22
 72
1
 11
1265073.8781091247
 21
994137.6232685548
 31
0.0
100
AcDbText
  0
LINE
  5
41
330
17
100
AcDbEntity
  8
ROADS
100
AcDbLine
 10
1265198.2328386852
 20
994195.9640609495
 30
0.0
 11
1265386.941639478
 21
994343.5342583238
 31
0.0
  0
LINE
  5
42
330
17
100
AcDbEntity
  8
ROADS
100
AcDbLine
 10
1264560.8619621992
 20
994940.7274064266
 30
0.0
 11
1264581.5451235888
 21
994919.904768133
 31
0.0
  0
LINE
  5
43
330
17
100
AcDbEntity
  8
ROADS
100
AcDbLine
 10
1264581.5451235888
 20
994919.904768133
 30
0.0
 11
1264633.0415200295
 21
994862.3834112756
 31
0.0
  0
LINE
  5
44
330
17
100
AcDbEntity
  8
ROADS
100
AcDbLine
 10
1264633.0415200295
 20
994862.3834112756
 30
0.0
 11
1264666.77132574
 21
994824.0959786695
 31
0.0
  0
LINE
  5
45
330
17
100
AcDbEntity
  8
ROADS
100
AcDbLine
 10
1264666.77132574
 20
994824.0959786695
 30
0.0
 11
1264712.8464629794
 21
994772.8733536951
 31
0.0
  0
LINE
  5
46
330
17
100
AcDbEntity
  8
ROADS
100
AcDbLine
 10
1264712.8464629794
 20
994772.8733536951
 30
0.0
 11
1264780.4953175345
 21
994691.2508069563
 31
0.0
  0
LINE
  5
47
330
17
100
AcDbEntity
  8
ROADS
100
AcDbLine
 10
1264780.4953175345
 20
994691.2508069563
 30
0.0
 11
1264844.1700662682
 21
994610.270673519
 31
0.0
  0
LINE
  5
48
330
17
100
AcDbEntity
  8
ROADS
100
AcDbLine
 10
1264844.1700662682
 20
994610.270673519
 30
0.0
 11
1264892.7610239994
 21
994551.6117253084
 31
0.0
  0
LINE
  5
49
330
17
100
AcDbEntity
  8
ROADS
100
AcDbLine
 10
1264892.7610239994
 20
994551.6117253084
 30
0.0
 11
1264939.8491686052
 21
994490.8683653485
 31
0.0
  0
LINE
  5
4A
330
17
100
AcDbEntity
  8
ROADS
100
AcDbLine
 10
1264939.8491686052
 20
994490.8683653485
 30
0.0
 11
1264974.3248149035
 21
994448.4460941239
 31
0.0
  0
LINE
  5
4B
330
17
100
AcDbEntity
  8
ROADS
100
AcDbLine
 10
1264974.3248149035
 20
994448.4460941239
 30
0.0
 11
1265042.697246149
 21
994368.4579781975
 31
0.0
  0
LINE
  5
4C
330
17
100
AcDbEntity
  8
ROADS
100
AcDbLine
 10
1265042.697246149
 20
994368.4579781975
 30
0.0
 11
1265076.7276144843
 21
994326.0358328911
 31
0.0
  0
LINE
  5
4D
330
17
100
AcDbEntity
  8
ROADS
100
AcDbLine
 10
1265076.7276144843
 20
994326.0358328911
 30
0.0
 11
1265146.113053096
 21
994238.5325496139
 31
0.0
  0
LINE
  5
4E
330
17
100
AcDbEntity
  8
ROADS
100
AcDbLine
 10
1265146.113053096
 20
994238.5325496139
 30
0.0
 11
1265222.9346336923
 21
994151.1083241078
 31
0.0
  0
LINE
  5
4F
330
17
100
AcDbEntity
  8
ROADS
100
AcDbLine
 10
1265222.9346336923
 20
994151.1083241078
 30
0.0
 11
1265273.9189604756
 21
994088.6303695234
 31
0.0
  0
LINE
  5
50
330
17
100
AcDbEntity
  8
ROADS
100
AcDbLine
 10
1265273.9189604756
 20
994088.6303695234
 30
0.0
 11
1265366.1805544451
 21
993980.9927375029
 31
0.0
  0
LINE
  5
51
330
17
100
AcDbEntity
  8
ROADS
100
AcDbLine
 10
1265366.1805544451
 20
993980.9927375029
 30
0.0
 11
1265459.7891142531
 21
993867.8343740748
 31
0.0
  0
LINE
  5
52
330
17
100
AcDbEntity
  8
ROADS
100
AcDbLine
 10
1265459.7891142531
 20
993867.8343740748
 30
0.0
 11
1265505.6193486126
 21
993811.7003692869
 31
0.0
  0
LINE
  5
53
330
17
100
AcDbEntity
  8
ROADS
100
AcDbLine
 10
1265505.6193486126
 20
993811.7003692869
 30
0.0
 11
1265520.102014365
 21
993791.9937686949
 31
0.0
  0
LINE
  5
54
330
17
100
AcDbEntity
  8
ROADS
100
AcDbLine
 10
1265222.9346336923
 20
994151.1083241078
 30
0.0
 11
1265045.814191891
 21
994077.937578483
 31
0.0
  0
LINE
  5
55
330
17
100
AcDbEntity
  8
ROADS
100
AcDbLine
 10
1265045.814191891
 20
994077.937578483
 30
0.0
 11
1264975.7051765895
 21
994048.9802973797
 31
0.0
  0
LINE
  5
56
330
17
100
AcDbEntity
  8
ROADS
100
AcDbLine
 10
1264975.7051765895
 20
994048.9802973797
 30
0.0
 11
1264907.7446274601
 21
994022.7272157362
 31
0.0
  0
LINE
  5
57
330
17
100
AcDbEntity
  8
ROADS
100
AcDbLine
 10
1264907.7446274601
 20
994022.7272157362
 30
0.0
 11
1264899.7741519194
 21
994019.6512119843
 31
0.0
  0
LINE
  5
58
330
17
100
AcDbEntity
  8
ROADS
100
AcDbLine
 10
1264899.7741519194
 20
994019.6512119843
 30
0.0
 11
1264837.7135358022
 21
993995.324875376
 31
0.0
  0
LINE
  5
59
330
17
100
AcDbEntity
  8
ROADS
100
AcDbLine
 10
1264837.7135358022
 20
993995.324875376
 30
0.0
 11
1264834.2514996384
 21
993993.9389844681
 31
0.0
  0
LINE
  5
5A
330
17
100
AcDbEntity
  8
ROADS
100
AcDbLine
 10
1264834.2514996384
 20
993993.9389844681
 30
0.0
 11
1264674.6638776371
 21
993934.9541584882
 31
0.0
  0
LINE
  5
5B
330
17
100
AcDbEntity
  8
ROADS
100
AcDbLine
 10
1264892.7610239994
 20
994551.6117253084
 30
0.0
 11
1264895.354768135
 21
994531.4202664747
 31
0.0
  0
LINE
  5
5C
330
17
100
AcDbEntity
  8
ROADS
100
AcDbLine
 10
1264895.354768135
 20
994531.4202664747
 30
0.0
 11
1264898.304734641
 21
994515.6118934964
 31
0.0
  0
LINE
  5
5D
330
17
100
AcDbEntity
  8
ROADS
100
AcDbLine
 10
1264898.304734641
 20
994515.6118934964
 30
0.0
 11
1264901.6443193646
 21
994487.1162742617
 31
0.0
  0
LINE
  5
5E
330
17
100
AcDbEntity
  8
ROADS
100
AcDbLine
 10
1264901.6443193646
 20
994487.1162742617
 30
0.0
 11
1264908.1676415254
 21
994432.2433895662
 31
0.0
  0
LINE
  5
5F
330
17
100
AcDbEntity
  8
ROADS
100
AcDbLine
 10
1264908.1676415254
 20
994432.2433895662
 30
0.0
 11
1264918.8877084884
 21
994347.3314063556
 31
0.0
  0
LINE
  5
60
330
17
100
AcDbEntity
  8
ROADS
100
AcDbLine
 10
1264918.8877084884
 20
994347.3314063556
 30
0.0
 11
1264922.8840782081
 21
994296.3572583717
 31
0.0
  0
LINE
  5
61
330
17
100
AcDbEntity
  8
ROADS
100
AcDbLine
 10
1264922.8840782081
 20
994296.3572583717
 30
0.0
 11
1264929.1402335905
 21
994256.8083938538
 31
0.0
  0
LINE
  5
62
330
17
100
AcDbEntity
  8
ROADS
100
AcDbLine
 10
1264929.1402335905
 20
994256.8083938538
 30
0.0
 11
1264944.7472261998
 21
994147.7844269358
 31
0.0
  0
LINE
  5
63
330
17
100
AcDbEntity
  8
ROADS
100
AcDbLine
 10
1264944.7472261998
 20
994147.7844269358
 30
0.0
 11
1264945.9049489042
 21
994140.0324237256
 31
0.0
  0
LINE
  5
64
330
17
100
AcDbEntity
  8
ROADS
100
AcDbLine
 10
1264945.9049489042
 20
994140.0324237256
 30
0.0
 11
1264975.7051765895
 21
994048.9802973797
 31
0.0
  0
LINE
  5
65
330
17
100
AcDbEntity
  8
ROADS
100
AcDbLine
 10
1264975.7051765895
 20
994048.9802973797
 30
0.0
 11
1264999.649999059
 21
993988.7334434245
 31
0.0
  0
LINE
  5
66
330
17
100
AcDbEntity
  8
ROADS
100
AcDbLine
 10
1264999.649999059
 20
993988.7334434245
 30
0.0
 11
1265004.2029662326
 21
993957.6692218899
 31
0.0
  0
LINE
  5
67
330
17
100
AcDbEntity
  8
ROADS
100
AcDbLine
 10
1265004.2029662326
 20
993957.6692218899
 30
0.0
 11
1265002.9561879355
 21
993941.4329079353
 31
0.0
  0
LINE
  5
68
330
17
100
AcDbEntity
  8
ROADS
100
AcDbLine
 10
1265002.9561879355
 20
993941.4329079353
 30
0.0
 11
1264999.0043460126
 21
993925.2304025309
 31
0.0
  0
LINE
  5
69
330
17
100
AcDbEntity
  8
ROADS
100
AcDbLine
 10
1264999.0043460126
 20
993925.2304025309
 30
0.0
 11
1264985.601479321
 21
993890.6958764311
 31
0.0
  0
LINE
  5
6A
330
17
100
AcDbEntity
  8
ROADS
100
AcDbLine
 10
1264985.601479321
 20
993890.6958764311
 30
0.0
 11
1264974.2691551582
 21
993850.324883054
 31
0.0
  0
LINE
  5
6B
330
17
100
AcDbEntity
  8
ROADS
100
AcDbLine
 10
1264974.2691551582
 20
993850.324883054
 30
0.0
 11
1264967.5120620672
 21
993828.3760592436
 31
0.0
  0
LINE
  5
6C
330
17
100
AcDbEntity
  8
ROADS
100
AcDbLine
 10
1264967.5120620672
 20
993828.3760592436
 30
0.0
 11
1264959.5304545772
 21
993829.7732119516
 31
0.0
  0
LINE
  5
6D
330
17
100
AcDbEntity
  8
ROADS
100
AcDbLine
 10
1264959.5304545772
 20
993829.7732119516
 30
0.0
 11
1264934.8620554174
 21
993834.0998787013
 31
0.0
  0
LINE
  5
6E
330
17
100
AcDbEntity
  8
ROADS
100
AcDbLine
 10
1264934.8620554174
 20
993834.0998787013
 30
0.0
 11
1264904.3939107873
 21
993836.8265803759
 31
0.0
  0
LINE
  5
6F
330
17
100
AcDbEntity
  8
ROADS
100
AcDbLine
 10
1264904.3939107873
 20
993836.8265803759
 30
0.0
 11
1264874.9944332687
 21
993835.339288531
 31
0.0
  0
LINE
  5
70
330
17
100
AcDbEntity
  8
ROADS
100
AcDbLine
 10
1264874.9944332687
 20
993835.339288531
 30
0.0
 11
1264817.0971661073
 21
993830.8098091524
 31
0.0
  0
LINE
  5
71
330
17
100
AcDbEntity
  8
ROADS
100
AcDbLine
 10
1264817.0971661073
 20
993830.8098091524
 30
0.0
 11
1264777.3672398431
 21
993826.7760941045
 31
0.0
  0
LINE
  5
72
330
17
100
AcDbEntity
  8
ROADS
100
AcDbLine
 10
1264777.3672398431
 20
993826.7760941045
 30
0.0
 11
1264727.5962955095
 21
993818.6185263298
 31
0.0
  0
LINE
  5
73
330
17
100
AcDbEntity
  8
ROADS
100
AcDbLine
 10
1265532.191311065
 20
993799.5090921101
 30
0.0
 11
1265515.5379152424
 21
993813.9538405088
 31
0.0
  0
LINE
  5
74
330
17
100
AcDbEntity
  8
ROADS
100
AcDbLine
 10
1265515.5379152424
 20
993813.9538405088
 30
0.0
 11
1265500.8548744067
 21
993831.7675348498
 31
0.0
  0
LINE
  5
75
330
17
100
AcDbEntity
  8
ROADS
100
AcDbLine
 10
1265500.8548744067
 20
993831.7675348498
 30
0.0
 11
1265447.6552897568
 21
993895.5859185006
 31
0.0
  0
LINE
  5
76
330
17
100
AcDbEntity
  8
ROADS
100
AcDbLine
 10
1265447.6552897568
 20
993895.5859185006
 30
0.0
 11
1265404.919737241
 21
993947.2130800405
 31
0.0
  0
LINE
  5
77
330
17
100
AcDbEntity
  8
ROADS
100
AcDbLine
 10
1265404.919737241
 20
993947.2130800405
 30
0.0
 11
1265372.1584111005
 21
993986.7841825532
 31
0.0
  0
LINE
  5
78
330
17
100
AcDbEntity
  8
ROADS
100
AcDbLine
 10
1265372.1584111005
 20
993986.7841825532
 30
0.0
 11
1265356.2731197644
 21
994005.9725753688
 31
0.0
  0
LINE
  5
79
330
17
100
AcDbEntity
  8
ROADS
100
AcDbLine
 10
1265356.2731197644
 20
994005.9725753688
 30
0.0
 11
1265336.836736672
 21
994029.273583458
 31
0.0
  0
LINE
  5
7A
330
17
100
AcDbEntity
  8
ROADS
100
AcDbLine
 10
1265336.836736672
 20
994029.273583458
 30
0.0
 11
1265296.6392685466
 21
994077.4530790604
 31
0.0
  0
LINE
  5
7B
330
17
100
AcDbEntity
  8
ROADS
100
AcDbLine
 10
1265296.6392685466
 20
994077.4530790604
 30
0.0
 11
1265264.1117133368
 21
994116.3820624669
 31
0.0
  0
LINE
  5
7C
330
17
100
AcDbEntity
  8
ROADS
100
AcDbLine
 10
1265264.1117133368
 20
994116.3820624669
 30
0.0
 11
1265233.164894896
 21
994153.1251974375
 31
0.0
  0
LINE
  5
7D
330
17
100
AcDbEntity
  8
ROADS
100
AcDbLine
 10
1265233.164894896
 20
994153.1251974375
 30
0.0
 11
1265198.2328386852
 21
994195.9640609495
 31
0.0
  0
LINE
  5
7E
330
17
100
AcDbEntity
  8
ROADS
100
AcDbLine
 10
1265198.2328386852
 20
994195.9640609495
 30
0.0
 11
1265173.7536826597
 21
994225.9805872989
 31
0.0
  0
LINE
  5
7F
330
17
100
AcDbEntity
  8
ROADS
100
AcDbLine
 10
1265173.7536826597
 20
994225.9805872989
 30
0.0
 11
1265145.6455112346
 21
994259.0506219108
 31
0.0
  0
LINE
  5
80
330
17
100
AcDbEntity
  8
ROADS
100
AcDbLine
 10
1265145.6455112346
 20
994259.0506219108
 30
0.0
 11
1265110.3015729075
 21
994300.6276366094
 31
0.0
  0
LINE
  5
81
330
17
100
AcDbEntity
  8
ROADS
100
AcDbLine
 10
1265110.3015729075
 20
994300.6276366094
 30
0.0
 11
1265101.7633679637
 21
994312.8077943815
 31
0.0
  0
LINE
  5
82
330
17
100
AcDbEntity
  8
ROADS
100
AcDbLine
 10
1265101.7633679637
 20
994312.8077943815
 30
0.0
 11
1265086.9912715356
 21
994332.4470387723
 31
0.0
  0
LINE
  5
83
330
17
100
AcDbEntity
  8
ROADS
100
AcDbLine
 10
1265086.9912715356
 20
994332.4470387723
 30
0.0
 11
1265055.8663419096
 21
994367.3424949333
 31
0.0
  0
LINE
  5
84
330
17
100
AcDbEntity
  8
ROADS
100
AcDbLine
 10
1265055.8663419096
 20
994367.3424949333
 30
0.0
 11
1265013.4758798156
 21
994420.0406614767
 31
0.0
  0
LINE
  5
85
330
17
100
AcDbEntity
  8
ROADS
100
AcDbLine
 10
1265013.4758798156
 20
994420.0406614767
 30
0.0
 11
1264976.896295141
 21
994465.1896466902
 31
0.0
  0
LINE
  5
86
330
17
100
AcDbEntity
  8
ROADS
100
AcDbLine
 10
1264976.896295141
 20
994465.1896466902
 30
0.0
 11
1264935.8973266818
 21
994512.1978265708
 31
0.0
  0
LINE
  5
87
330
17
100
AcDbEntity
  8
ROADS
100
AcDbLine
 10
1264935.8973266818
 20
994512.1978265708
 30
0.0
 11
1264926.0232878486
 21
994524.7048057946
 31
0.0
  0
LINE
  5
88
330
17
100
AcDbEntity
  8
ROADS
100
AcDbLine
 10
1264926.0232878486
 20
994524.7048057946
 30
0.0
 11
1264855.825216954
 21
994613.5382700914
 31
0.0
  0
LINE
  5
89
330
17
100
AcDbEntity
  8
ROADS
100
AcDbLine
 10
1264855.825216954
 20
994613.5382700914
 30
0.0
 11
1264788.7997515474
 21
994694.6986914984
 31
0.0
  0
LINE
  5
8A
330
17
100
AcDbEntity
  8
ROADS
100
AcDbLine
 10
1264788.7997515474
 20
994694.6986914984
 30
0.0
 11
1264773.548981309
 21
994712.7268506617
 31
0.0
  0
LINE
  5
8B
330
17
100
AcDbEntity
  8
ROADS
100
AcDbLine
 10
1264773.548981309
 20
994712.7268506617
 30
0.0
 11
1264729.8560811726
 21
994765.628275714
 31
0.0
  0
LINE
  5
8C
330
17
100
AcDbEntity
  8
ROADS
100
AcDbLine
 10
1264729.8560811726
 20
994765.628275714
 30
0.0
 11
1264718.4458333661
 21
994780.3663205982
 31
0.0
  0
LINE
  5
8D
330
17
100
AcDbEntity
  8
ROADS
100
AcDbLine
 10
1264718.4458333661
 20
994780.3663205982
 30
0.0
 11
1264681.8662486917
 21
994824.1635844639
 31
0.0
  0
LINE
  5
8E
330
17
100
AcDbEntity
  8
ROADS
100
AcDbLine
 10
1264681.8662486917
 20
994824.1635844639
 30
0.0
 11
1264617.7907497908
 21
994894.3835293761
 31
0.0
  0
LINE
  5
8F
330
17
100
AcDbEntity
  8
ROADS
100
AcDbLine
 10
1264617.7907497908
 20
994894.3835293761
 30
0.0
 11
1264592.821788006
 21
994920.9864633696
 31
0.0
  0
LINE
  5
90
330
17
100
AcDbEntity
  8
ROADS
100
AcDbLine
 10
1264592.821788006
 20
994920.9864633696
 30
0.0
 11
1264578.5840251334
 21
994935.7358314616
 31
0.0
  0
LINE
  5
91
330
17
100
AcDbEntity
  8
ROADS
100
AcDbLine
 10
1264578.5840251334
 20
994935.7358314616
 30
0.0
 11
1264567.407548258
 21
994948.9866051573
 31
0.0
  0
LINE
  5
92
330
17
100
AcDbEntity
  8
ROADS
100
AcDbLine
 10
1265009.5574337398
 20
994179.3220247846
 30
0.0
 11
1264995.9541919648
 21
994229.4171654702
 31
0.0
  0
LINE
  5
93
330
17
100
AcDbEntity
  8
ROADS
100
AcDbLine
 10
1264995.9541919648
 20
994229.4171654702
 30
0.0
 11
1264984.8556387327
 21
994282.4869827658
 31
0.0
  0
LINE
  5
94
330
17
100
AcDbEntity
  8
ROADS
100
AcDbLine
 10
1264944.7472261998
 20
994147.7844269358
 30
0.0
 11
1265009.5574337398
 21
994179.3220247846
 31
0.0
  0
LINE
  5
95
330
17
100
AcDbEntity
  8
ROADS
100
AcDbLine
 10
1265009.5574337398
 20
994179.3220247846
 30
0.0
 11
1265146.113053096
 21
994238.5325496139
 31
0.0
  0
LINE
  5
96
330
17
100
AcDbEntity
  8
ROADS
100
AcDbLine
 10
1265233.164894896
 20
994153.1251974375
 30
0.0
 11
1265258.946488964
 21
994167.006696996
 31
0.0
  0
LINE
  5
97
330
17
100
AcDbEntity
  8
ROADS
100
AcDbLine
 10
1265258.946488964
 20
994167.006696996
 30
0.0
 11
1265273.0284045492
 21
994184.9219508963
 31
0.0
  0
LINE
  5
98
330
17
100
AcDbEntity
  8
ROADS
100
AcDbLine
 10
1265273.0284045492
 20
994184.9219508963
 30
0.0
 11
1265297.9194426907
 21
994210.9272515343
 31
0.0
  0
LINE
  5
99
330
17
100
AcDbEntity
  8
ROADS
100
AcDbLine
 10
1265297.9194426907
 20
994210.9272515343
 30
0.0
 11
1265316.5543254493
 21
994226.0819945195
 31
0.0
  0
LINE
  5
9A
330
17
100
AcDbEntity
  8
ROADS
100
AcDbLine
 10
1265316.5543254493
 20
994226.0819945195
 30
0.0
 11
1265347.3230327046
 21
994244.0761463946
 31
0.0
  0
LINE
  5
9B
330
17
100
AcDbEntity
  8
ROADS
100
AcDbLine
 10
1265347.3230327046
 20
994244.0761463946
 30
0.0
 11
1265390.3257519982
 21
994269.6871224947
 31
0.0
  0
LINE
  5
9C
330
17
100
AcDbEntity
  8
ROADS
100
AcDbLine
 10
1265390.3257519982
 20
994269.6871224947
 30
0.0
 11
1265429.9666226695
 21
994294.2502381377
 31
0.0
  0
LINE
  5
9D
330
17
100
AcDbEntity
  8
ROADS
100
AcDbLine
 10
1265429.9666226695
 20
994294.2502381377
 30
0.0
 11
1265487.585591104
 21
994335.5681358444
 31
0.0
  0
LINE
  5
9E
330
17
100
AcDbEntity
  8
ROADS
100
AcDbLine
 10
1265487.585591104
 20
994335.5681358444
 30
0.0
 11
1265553.2974865194
 21
994372.4579436844
 31
0.0
  0
LINE
  5
9F
330
17
100
AcDbEntity
  8
ROADS
100
AcDbLine
 10
1265553.2974865194
 20
994372.4579436844
 30
0.0
 11
1265591.4132801672
 21
994393.0774902375
 31
0.0
  0
LINE
  5
A0
330
17
100
AcDbEntity
  8
ROADS
100
AcDbLine
 10
1265591.4132801672
 20
994393.0774902375
 30
0.0
 11
1265614.3673591686
 21
994402.790088962
 31
0.0
  0
LINE
  5
A1
330
17
100
AcDbEntity
  8
ROADS
100
AcDbLine
 10
1265614.3673591686
 20
994402.790088962
 30
0.0
 11
1265626.2451488362
 21
994407.8154019607
 31
0.0
  0
LINE
  5
A2
330
17
100
AcDbEntity
  8
ROADS
100
AcDbLine
 10
1265626.2451488362
 20
994407.8154019607
 30
0.0
 11
1265661.1994689454
 21
994419.725170863
 31
0.0
  0
LINE
  5
A3
330
17
100
AcDbEntity
  8
ROADS
100
AcDbLine
 10
1265661.1994689454
 20
994419.725170863
 30
0.0
 11
1265693.2817461921
 21
994430.057489717
 31
0.0
  0
LINE
  5
A4
330
17
100
AcDbEntity
  8
ROADS
100
AcDbLine
 10
1265693.2817461921
 20
994430.057489717
 30
0.0
 11
1265716.4695961243
 21
994434.0123910754
 31
0.0
  0
LINE
  5
A5
330
17
100
AcDbEntity
  8
ROADS
100
AcDbLine
 10
1265716.4695961243
 20
994434.0123910754
 30
0.0
 11
1265737.9208620002
 21
994435.1391436687
 31
0.0
  0
LINE
  5
A6
330
17
100
AcDbEntity
  8
ROADS
100
AcDbLine
 10
1265737.9208620002
 20
994435.1391436687
 30
0.0
 11
1265764.292449369
 21
994443.5672540427
 31
0.0
  0
LINE
  5
A7
330
17
100
AcDbEntity
  8
ROADS
100
AcDbLine
 10
1265764.292449369
 20
994443.5672540427
 30
0.0
 11
1265900.42505466
 21
994484.0402358779
 31
0.0
  0
LINE
  5
A8
330
17
100
AcDbEntity
  8
ROADS
100
AcDbLine
 10
1265900.42505466
 20
994484.0402358779
 30
0.0
 11
1265959.2796694424
 21
994500.8288730724
 31
0.0
  0
LINE
  5
A9
330
17
100
AcDbEntity
  8
ROADS
100
AcDbLine
 10
1265959.2796694424
 20
994500.8288730724
 30
0.0
 11
1265979.851511341
 21
994505.7189874738
 31
0.0
  0
LINE
  5
AA
330
17
100
AcDbEntity
  8
ROADS
100
AcDbLine
 10
1265979.851511341
 20
994505.7189874738
 30
0.0
 11
1266017.0990129604
 21
994514.5640115385
 31
0.0
  0
LINE
  5
AB
330
17
100
AcDbEntity
  8
ROADS
100
AcDbLine
 10
1266017.0990129604
 20
994514.5640115385
 30
0.0
 11
1266062.7734000331
 21
994522.924532845
 31
0.0
  0
LINE
  5
AC
330
17
100
AcDbEntity
  8
ROADS
100
AcDbLine
 10
1266062.7734000331
 20
994522.924532845
 30
0.0
 11
1266106.2213972895
 21
994530.3836516675
 31
0.0
  0
LINE
  5
AD
330
17
100
AcDbEntity
  8
ROADS
100
AcDbLine
 10
1266106.2213972895
 20
994530.3836516675
 30
0.0
 11
1266158.4079745736
 21
994536.7385515476
 31
0.0
  0
LINE
  5
AE
330
17
100
AcDbEntity
  8
ROADS
100
AcDbLine
 10
1266158.4079745736
 20
994536.7385515476
 30
0.0
 11
1266177.577190888
 21
994532.0287143084
 31
0.0
  0
LINE
  5
AF
330
17
100
AcDbEntity
  8
ROADS
100
AcDbLine
 10
1266177.577190888
 20
994532.0287143084
 30
0.0
 11
1266201.6222008995
 21
994522.9132652949
 31
0.0
  0
LINE
  5
B0
330
17
100
AcDbEntity
  8
ROADS
100
AcDbLine
 10
1266201.6222008995
 20
994522.9132652949
 30
0.0
 11
1266219.3108679866
 21
994518.9583554101
 31
0.0
  0
LINE
  5
B1
330
17
100
AcDbEntity
  8
ROADS
100
AcDbLine
 10
1266219.3108679866
 20
994518.9583554101
 30
0.0
 11
1266247.6416783936
 21
994513.6851428204
 31
0.0
  0
LINE
  5
B2
330
17
100
AcDbEntity
  8
ROADS
100
AcDbLine
 10
1266247.6416783936
 20
994513.6851428204
 30
0.0
 11
1266291.7575925947
 21
994514.0569718913
 31
0.0
  0
LINE
  5
B3
330
17
100
AcDbEntity
  8
ROADS
100
AcDbLine
 10
1266291.7575925947
 20
994514.0569718913
 30
0.0
 11
1266403.2663265227
 21
994521.3132732161
 31
0.0
  0
LINE
  5
B4
330
17
100
AcDbEntity
  8
ROADS
100
AcDbLine
 10
1266403.2663265227
 20
994521.3132732161
 30
0.0
 11
1266541.0909880735
 21
994537.3244643519
 31
0.0
  0
LINE
  5
B5
330
17
100
AcDbEntity
  8
ROADS
100
AcDbLine
 10
1266541.0909880735
 20
994537.3244643519
 30
0.0
 11
1266627.9424547905
 21
994518.710469333
 31
0.0
  0
LINE
  5
B6
330
17
100
AcDbEntity
  8
ROADS
100
AcDbLine
 10
1266627.9424547905
 20
994518.710469333
 30
0.0
 11
1266676.589072267
 21
994501.606333618
 31
0.0
  0
LINE
  5
B7
330
17
100
AcDbEntity
  8
ROADS
100
AcDbLine
 10
1266676.589072267
 20
994501.606333618
 30
0.0
 11
1266715.2948592159
 21
994478.0346377895
 31
0.0
  0
LINE
  5
B8
330
17
100
AcDbEntity
  8
ROADS
100
AcDbLine
 10
1266715.2948592159
 20
994478.0346377895
 30
0.0
 11
1266742.6237942057
 21
994467.7023069151
 31
0.0
  0
LINE
  5
B9
330
17
100
AcDbEntity
  8
ROADS
100
AcDbLine
 10
1266742.6237942057
 20
994467.7023069151
 30
0.0
 11
1266779.6597887927
 21
994453.4714126862
 31
0.0
  0
LINE
  5
BA
330
17
100
AcDbEntity
  8
ROADS
100
AcDbLine
 10
1264859.0757460855
 20
994104.0104162904
 30
0.0
 11
1264945.9049489042
 21
994140.0324237256
 31
0.0
  0
LINE
  5
BB
330
17
100
AcDbEntity
  8
ROADS
100
AcDbLine
 10
1265145.6455112346
 20
994259.0506219108
 30
0.0
 11
1265202.707882215
 21
994305.551529744
 31
0.0
  0
LINE
  5
BC
330
17
100
AcDbEntity
  8
ROADS
100
AcDbLine
 10
1265202.707882215
 20
994305.551529744
 30
0.0
 11
1265247.0909631944
 21
994338.1709281685
 31
0.0
  0
LINE
  5
BD
330
17
100
AcDbEntity
  8
ROADS
100
AcDbLine
 10
1265247.0909631944
 20
994338.1709281685
 30
0.0
 11
1265270.345604821
 21
994355.263728594
 31
0.0
  0
LINE
  5
BE
330
17
100
AcDbEntity
  8
ROADS
100
AcDbLine
 10
1265270.345604821
 20
994355.263728594
 30
0.0
 11
1265334.988833125
 21
994405.7759811409
 31
0.0
  0
LINE
  5
BF
330
17
100
AcDbEntity
  8
ROADS
100
AcDbLine
 10
1265045.814191891
 20
994077.937578483
 30
0.0
 11
1265088.9504945735
 21
994006.8176310416
 31
0.0
  0
LINE
  5
C0
330
17
100
AcDbEntity
  8
BUILDINGS
100
AcDbLine
 10
1265109.7227115557
 20
994193.2711379192
 30
0.0
 11
1265102.7207155847
 21
994189.9021675135
 31
0.0
  0
LINE
  5
C1
330
17
100
AcDbEntity
  8
BUILDINGS
100
AcDbLine
 10
1265102.7207155847
 20
994189.9021675135
 30
0.0
 11
1265109.388753083
 21
994176.0544626161
 31
0.0
  0
LINE
  5
C2
330
17
100
AcDbEntity
  8
BUILDINGS
100
AcDbLine
 10
1265109.388753083
 20
994176.0544626161
 30
0.0
 11
1265116.379617105
 21
994179.4234318903
 31
0.0
  0
LINE
  5
C3
330
17
100
AcDbEntity
  8
BUILDINGS
100
AcDbLine
 10
1265116.379617105
 20
994179.4234318903
 30
0.0
 11
1265109.7227115557
 21
994193.2711379192
 31
0.0
  0
LINE
  5
C4
330
17
100
AcDbEntity
  8
GRID
100
AcDbLine
 10
1264950.0
 20
994050.0
 30
0.0
 11
1264950.0
 21
994250.0
 31
0.0
  0
TEXT
  5
C5
330
17
100
AcDbEntity
  8
COORDS
100
AcDbText
 10
1264950.0
 20
994262.5
 30
0.0
 40
2.5
  1
1264950
 72
1
 11
1264950.0
 21
994262.5
 31
0.0
100
AcDbText
  0
LINE
  5
C6
330
17
100
AcDbEntity
  8
GRID
100
AcDbLine
 10
1265000.0
 20
994050.0
 30
0.0
 11
1265000.0
 21
994250.0
 31
0.0
  0
TEXT
  5
C7
330
17
100
AcDbEntity
  8
COORDS
100
AcDbText
 10
1265000.0
 20
994262.5
 30
0.0
 40
2.5
  1
1265000
 72
1
 11
1265000.0
 21
994262.5
 31
0.0
100
AcDbText
  0
LINE
  5
C8
330
17
100
AcDbEntity
  8
GRID
100
AcDbLine
 10
1265050.0
 20
994050.0
 30
0.0
 11
1265050.0
 21
994250.0
 31
0.0
  0
TEXT
  5
C9
330
17
100
AcDbEntity
  8
COORDS
100
AcDbText
 10
1265050.0
 20
994262.5
 30
0.0
 40
2.5
  1
1265050
 72
1
 11
1265050.0
 21
994262.5
 31
0.0
100
AcDbText
  0
LINE
  5
CA
330
17
100
AcDbEntity
  8
GRID
100
AcDbLine
 10
1265100.0
 20
994050.0
 30
0.0
 11
1265100.0
 21
994250.0
 31
0.0
  0
TEXT
  5
CB
330
17
100
AcDbEntity
  8
COORDS
100
AcDbText
 10
1265100.0
 20
994262.5
 30
0.0
 40
2.5
  1
1265100
 72
1
 11
1265100.0
 21
994262.5
 31
0.0
100
AcDbText
  0
LINE
  5
CC
330
17
100
AcDbEntity
  8
GRID
100
AcDbLine
 10
1265150.0
 20
994050.0
 30
0.0
 11
1265150.0
 21
994250.0
 31
0.0
  0
TEXT
  5
CD
330
17
100
AcDbEntity
  8
COORDS
100
AcDbText
 10
1265150.0
 20
994262.5
 30
0.0
 40
2.5
  1
1265150
 72
1
 11
1265150.0
 21
994262.5
 31
0.0
100
AcDbText
  0
LINE
  5
CE
330
17
100
AcDbEntity
  8
GRID
100
AcDbLine
 10
1265200.0
 20
994050.0
 30
0.0
 11
1265200.0
 21
994250.0
 31
0.0
  0
TEXT
  5
CF
330
17
100
AcDbEntity
  8
COORDS
100
AcDbText
 10
1265200.0
 20
994262.5
 30
0.0
 40
2.5
  1
1265200
 72
1
 11
1265200.0
 21
994262.5
 31
0.0
100
AcDbText
  0
LINE
  5
D0
330
17
100
AcDbEntity
  8
GRID
100
AcDbLine
 10
1264950.0
 20
994050.0
 30
0.0
 11
1265200.0
 21
994050.0
 31
0.0
  0
TEXT
  5
D1
330
17
100
AcDbEntity
  8
COORDS
100
AcDbText
 10
1264937.5
 20
994050.0
 30
0.0
 40
2.5
  1
994050
 50
90.0
 72
1
 11
1264937.5
 21
994050.0
 31
0.0
100
AcDbText
  0
TEXT
  5
D2
330
17
100
AcDbEntity
  8
COORDS
100
AcDbText
 10
1265212.5
 20
994050.0
 30
0.0
 40
2.5
  1
994050
 50
90.0
 72
1
 11
1265212.5
 21
994050.0
 31
0.0
100
AcDbText
  0
LINE
  5
D3
330
17
100
AcDbEntity
  8
GRID
100
AcDbLine
 10
1264950.0
 20
994100.0
 30
0.0
 11
1265200.0
 21
994100.0
 31
0.0
  0
TEXT
  5
D4
330
17
100
AcDbEntity
  8
COORDS
100
AcDbText
 10
1264937.5
 20
994100.0
 30
0.0
 40
2.5
  1
994100
 50
90.0
 72
1
 11
1264937.5
 21
994100.0
 31
0.0
100
AcDbText
  0
TEXT
  5
D5
330
17
100
AcDbEntity
  8
COORDS
100
AcDbText
 10
1265212.5
 20
994100.0
 30
0.0
 40
2.5
  1
994100
 50
90.0
 72
1
 11
1265212.5
 21
994100.0
 31
0.0
100
AcDbText
  0
LINE
  5
D6
330
17
100
AcDbEntity
  8
GRID
100
AcDbLine
 10
1264950.0
 20
994150.0
 30
0.0
 11
1265200.0
 21
994150.0
 31
0.0
  0
TEXT
  5
D7
330
17
100
AcDbEntity
  8
COORDS
100
AcDbText
 10
1264937.5
 20
994150.0
 30
0.0
 40
2.5
  1
994150
 50
90.0
 72
1
 11
1264937.5
 21
994150.0
 31
0.0
100
AcDbText
  0
TEXT
  5
D8
330
17
100
AcDbEntity
  8
COORDS
100
AcDbText
 10
1265212.5
 20
994150.0
 30
0.0
 40
2.5
  1
994150
 50
90.0
 72
1
 11
1265212.5
 21
994150.0
 31
0.0
100
AcDbText
  0
LINE
  5
D9
330
17
100
AcDbEntity
  8
GRID
100
AcDbLine
 10
1264950.0
 20
994200.0
 30
0.0
 11
1265200.0
 21
994200.0
 31
0.0
  0
TEXT
  5
DA
330
17
100
AcDbEntity
  8
COORDS
100
AcDbText
 10
1264937.5
 20
994200.0
 30
0.0
 40
2.5
  1
994200
 50
90.0
 72
1
 11
1264937.5
 21
994200.0
 31
0.0
100
AcDbText
  0
TEXT
  5
DB
330
17
100
AcDbEntity
  8
COORDS
100
AcDbText
 10
1265212.5
 20
994200.0
 30
0.0
 40
2.5
  1
994200
 50
90.0
 72
1
 11
1265212.5
 21
994200.0
 31
0.0
100
AcDbText
  0
LINE
  5
DC
330
17
100
AcDbEntity
  8
GRID
100
AcDbLine
 10
1264950.0
 20
994250.0
 30
0.0
 11
1265200.0
 21
994250.0
 31
0.0
  0
TEXT
  5
DD
330
17
100
AcDbEntity
  8
COORDS
100
AcDbText
 10
1264937.5
 20
994250.0
 30
0.0
 40
2.5
  1
994250
 50
90.0
 72
1
 11
1264937.5
 21
994250.0
 31
0.0
100
AcDbText
  0
TEXT
  5
DE
330
17
100
AcDbEntity
  8
COORDS
100
AcDbText
 10
1265212.5
 20
994250.0
 30
0.0
 40
2.5
  1
994250
 50
90.0
 72
1
 11
1265212.5
 21
994250.0
 31
0.0
100
AcDbText
  0
ENDSEC
  0
SECTION
  2
OBJECTS
  0
DICTIONARY
  5
A
330
0
100
AcDbDictionary
281
1
  3
ACAD_COLOR
350
B
  3
ACAD_GROUP
350
C
  3
ACAD_LAYOUT
350
D
  3
ACAD_MATERIAL
350
E
  3
ACAD_MLEADERSTYLE
350
F
  3
ACAD_MLINESTYLE
350
10
  3
ACAD_PLOTSETTINGS
350
11
  3
ACAD_PLOTSTYLENAME
350
12
  3
ACAD_SCALELIST
350
14
  3
ACAD_TABLESTYLE
350
15
  3
ACAD_VISUALSTYLE
350
16
  3
EZDXF_META
350
2D
  0
DICTIONARY
  5
B
330
A
100
AcDbDictionary
281
1
  0
DICTIONARY
  5
C
330
A
100
AcDbDictionary
281
1
  0
DICTIONARY
  5
D
330
A
100
AcDbDictionary
281
1
  3
Model
350
1A
  3
Layout1
350
1E
  0
DICTIONARY
  5
E
330
A
100
AcDbDictionary
281
1
  3
ByBlock
350
1F
  3
ByLayer
350
20
  3
Global
350
21
  0
DICTIONARY
  5
F
330
A
100
AcDbDictionary
281
1
  3
Standard
350
2C
  0
DICTIONARY
  5
10
330
A
100
AcDbDictionary
281
1
  3
Standard
350
22
  0
DICTIONARY
  5
11
330
A
100
AcDbDictionary
281
1
  0
ACDBDICTIONARYWDFLT
  5
12
330
A
100
AcDbDictionary
281
1
  3
Normal
350
13
100
AcDbDictionaryWithDefault
340
13
  0
ACDBPLACEHOLDER
  5
13
330
12
  0
DICTIONARY
  5
14
330
A
100
AcDbDictionary
281
1
  0
DICTIONARY
  5
15
330
A
100
AcDbDictionary
281
1
  0
DICTIONARY
  5
16
330
A
100
AcDbDictionary
281
1
  0
LAYOUT
  5
1A
330
D
100
AcDbPlotSettings
  1

  4
A3
  6

 40
7.5
 41
20.0
 42
7.5
 43
20.0
 44
420.0
 45
297.0
 46
0.0
 47
0.0
 48
0.0
 49
0.0
140
0.0
141
0.0
142
1.0
143
1.0
 70
1024
 72
1
 73
0
 74
5
  7

 75
16
 76
0
 77
2
 78
300
147
1.0
148
0.0
149
0.0
100
AcDbLayout
  1
Model
 70
1
 71
0
 10
0.0
 20
0.0
 11
420.0
 21
297.0
 12
0.0
 22
0.0
 32
0.0
 14
1e+20
 24
1e+20
 34
1e+20
 15
-1e+20
 25
-1e+20
 35
-1e+20
146
0.0
 13
0.0
 23
0.0
 33
0.0
 16
1.0
 26
0.0
 36
0.0
 17
0.0
 27
1.0
 37
0.0
 76
1
330
17
  0
LAYOUT
  5
1E
330
D
100
AcDbPlotSettings
  1

  4
A3
  6

 40
7.5
 41
20.0
 42
7.5
 43
20.0
 44
420.0
 45
297.0
 46
0.0
 47
0.0
 48
0.0
 49
0.0
140
0.0
141
0.0
142
1.0
143
1.0
 70
0
 72
1
 73
0
 74
5
  7

 75
16
 76
0
 77
2
 78
300
147
1.0
148
0.0
149
0.0
100
AcDbLayout
  1
Layout1
 70
1
 71
1
 10
0.0
 20
0.0
 11
420.0
 21
297.0
 12
0.0
 22
0.0
 32
0.0
 14
1e+20
 24
1e+20
 34
1e+20
 15
-1e+20
 25
-1e+20
 35
-1e+20
146
0.0
 13
0.0
 23
0.0
 33
0.0
 16
1.0
 26
0.0
 36
0.0
 17
0.0
 27
1.0
 37
0.0
 76
1
330
1B
  0
MATERIAL
  5
1F
102
{ACAD_REACTORS
330
E
102
}
330
E
100
AcDbMaterial
  1
ByBlock
  2

 70
0
 40
1.0
 71
1
 41
1.0
 91
-1023410177
 42
1.0
 72
1
  3

 73
1
 74
1
 75
1
 44
0.5
 73
0
 45
1.0
 46
1.0
 77
1
  4

 78
1
 79
1
170
1
 48
1.0
171
1
  6

172
1
173
1
174
1
140
1.0
141
1.0
175
1
  7

176
1
177
1
178
1
143
1.0
179
1
  8

270
1
271
1
272
1
145
1.0
146
1.0
273
1
  9

274
1
275
1
276
1
 42
1.0
 72
1
  3

 73
1
 74
1
 75
1
 94
63
  0
MATERIAL
  5
20
102
{ACAD_REACTORS
330
E
102
}
330
E
100
AcDbMaterial
  1
ByLayer
  2

 70
0
 40
1.0
 71
1
 41
1.0
 91
-1023410177
 42
1.0
 72
1
  3

 73
1
 74
1
 75
1
 44
0.5
 73
0
 45
1.0
 46
1.0
 77
1
  4

 78
1
 79
1
170
1
 48
1.0
171
1
  6

172
1
173
1
174
1
140
1.0
141
1.0
175
1
  7

176
1
177
1
178
1
143
1.0
179
1
  8

270
1
271
1
272
1
145
1.0
146
1.0
273
1
  9

274
1
275
1
276
1
 42
1.0
 72
1
  3

 73
1
 74
1
 75
1
 94
63
  0
MATERIAL
  5
21
102
{ACAD_REACTORS
330
E
102
}
330
E
100
AcDbMaterial
  1
Global
  2

 70
0
 40
1.0
 71
1
 41
1.0
 91
-1023410177
 42
1.0
 72
1
  3

 73
1
 74
1
 75
1
 44
0.5
 73
0
 45
1.0
 46
1.0
 77
1
  4

 78
1
 79
1
170
1
 48
1.0
171
1
  6

172
1
173
1
174
1
140
1.0
141
1.0
175
1
  7

176
1
177
1
178
1
143
1.0
179
1
  8

270
1
271
1
272
1
145
1.0
146
1.0
273
1
  9

274
1
275
1
276
1
 42
1.0
 72
1
  3

 73
1
 74
1
 75
1
 94
63
  0
MLINESTYLE
  5
22
102
{ACAD_REACTORS
330
10
102
}
330
10
100
AcDbMlineStyle
  2
Standard
 70
0
  3

 62
256
 51
90.0
 52
90.0
 71
2
 49
0.5
 62
256
  6
BYLAYER
 49
-0.5
 62
256
  6
BYLAYER
  0
MLEADERSTYLE
  5
2C
102
{ACAD_REACTORS
330
F
102
}
330
F
100
AcDbMLeaderStyle
179
2
170
2
171
1
172
0
 90
2
 40
0.0
 41
0.0
173
1
 91
-1056964608
 92
-2
290
1
 42
2.0
291
1
 43
8.0
  3
Standard
 44
4.0
300

342
29
174
1
175
1
176
0
178
1
 93
-1056964608
 45
4.0
292
0
297
0
 46
4.0
 94
-1056964608
 47
1.0
 49
1.0
140
1.0
294
1
141
0.0
177
0
142
1.0
295
0
296
0
143
3.75
271
0
272
9
273
9
  0
DICTIONARY
  5
2D
330
A
100
AcDbDictionary
280
1
281
1
  3
CREATED_BY_EZDXF
350
2E
  3
WRITTEN_BY_EZDXF
350
E1
  0
DICTIONARYVAR
  5
2E
330
2D
100
DictionaryVariables
280
0
  1
1.4.3 @ 2026-01-29T18:55:13.753943+00:00
  0
DICTIONARYVAR
  5
E1
330
2D
100
DictionaryVariables
280
0
  1
1.4.3 @ 2026-01-29T18:55:13.774094+00:00
  0
ENDSEC
  0
EOF
